<?xml version="1.0" encoding="UTF-8"?>
<svg id="Layer_1" data-name="Layer 1" xmlns="http://www.w3.org/2000/svg" xmlns:xlink="http://www.w3.org/1999/xlink" viewBox="0 0 227.22 200.44">
  <defs>
    <style>
      .cls-1 {
        fill: url(#linear-gradient);
      }
    </style>
    <linearGradient id="linear-gradient" x1="6.9" y1="100.22" x2="227.22" y2="100.22" gradientUnits="userSpaceOnUse">
      <stop offset="0" stop-color="#e5c700"/>
      <stop offset=".04" stop-color="#edc704"/>
      <stop offset=".1" stop-color="#f9c70a"/>
      <stop offset=".18" stop-color="#fdc70c"/>
      <stop offset=".67" stop-color="#f3903f"/>
      <stop offset=".89" stop-color="#ed683c"/>
      <stop offset="1" stop-color="#e93e3a"/>
    </linearGradient>
  </defs>
  <path class="cls-1" d="M193.1,191.37l4.36-29.4c-14.52,.48-29.04,.97-43.56,1.45,5.44-14.28,10.89-28.55,16.33-42.83-14.28,3.15-26.74,9.76-41.38,14.52,0-20.45-1.45-45.98-1.45-66.42-27.34,11.37-54.69,22.75-82.03,34.12C32.55,71.35,19.73,39.89,6.9,8.43c1.67-.3,4.01-.72,6.81-1.18,8.63-1.44,21.06-3.3,35.96-4.75,1.25-.12,21.04-2.02,41.8-2.41,40.9-.78,78.6,3.91,100.54,7.26-8.11,29.4-21.29,58.44-29.4,87.84,17.42,.12,38.47,.38,55.89,.5-8.59,13.19-20.81,26.23-29.4,39.42,12.7,1.57,25.41,3.15,38.11,4.72-5.08,11.37-26.86,49.24-31.95,60.62,1.94-9.44,20.57-45.37,22.51-54.81-12.22-2.42-24.44-4.84-36.66-7.26,6.65-11.86,13.31-23.71,19.96-35.57-16.45-.36-33.64,.11-50.1-.25,8.23-29.64,17.19-60.12,25.42-89.76-24.57-1.96-51.54-3.02-80.58-2.54-27.4,.45-52.9,2.21-76.22,4.72,12.95,23.23,25.89,46.46,38.84,69.69,25.53-11.01,51.06-22.02,76.59-33.03-.73,22.75-1.45,45.49-2.18,68.24,14.28-1.81,28.55-3.63,42.83-5.44-4.36,14.4-8.71,28.8-13.07,43.19,14.03-1.21,28.07-2.42,42.1-3.63-3.87,12.46-7.74,24.92-11.61,37.39Z"/>
</svg>